cover
 
http://rapidhdd.com/images/39013315417a687d56ff25ce7a54547809c4cbf296d899.png.jpg


Genre:Drama
Language:English
IMDb:http://www.imdb.com/title/tt1486861/
Source:DVD


General
Complete name :Too.Late.to.Say.Goodbye.2009.DvDRip.XviD.Ac3.Feel-Free
Format : AVI
Format/Info : Audio Video Interleave
File size : 789 MiB
Duration : 1h 25mn
Overall bit rate : 1 293 Kbps
Video #0
Codec ID : XVID
Codec ID/Hint : XviD
Duration : 1h 25mn
Bit rate : 835 Kbps
Width : 720 pixels
Height : 384 pixels
Display aspect ratio : 1.875
Frame rate : 25.000 fps
Resolution : 24 bits
Colorimetry : 4:2:0
Scan type : Progressive
Bits/(Pixel*Frame) : 0.121
Stream size : 510 MiB (65%)
Writing library : XviD 1.2.1 (UTC 2008-12-04)
Audio #1
ID : 1
Format : AC-3
Format/Info : Audio Coding 3
Codec ID : 2000
Duration : 1h 25mn
Bit rate mode : Constant
Bit rate : 448 Kbps
Channel(s) : 6 channels
Channel positions : Front: L C R, Surround: L R, LFE
Sampling rate : 48.0 KHz
Stream size : 273 MiB (35%)
Alignment : Split accross interleaves
Interleave, duration : 40 ms (1.00 video frame)
Interleave, preload duration : 500 ms


Plot:
Jenn Corbin and Bobby seem to have the perfect marriage. But then discovered that Jenn
Bobby has an affair with a handsome fellow. She is quite the card,but then learns through
the internet itself a charming and mysterious husband.A few days later the lifeless body
of Jenn found. At first sight it appears to be suicide to go,but her sister does not believe
it. She suspects Bobby, who has some dark secrets.

screens
 
http://www.rapidhdd.com/images/525199vlcsnap-2010-11-07-17h30m12s89.png 
http://www.rapidhdd.com/images/44407vlcsnap-2010-11-07-17h30m51s235.png 
http://www.rapidhdd.com/images/365871vlcsnap-2010-11-07-17h30m36s86.png 
http://www.rapidhdd.com/images/827120vlcsnap-2010-11-07-17h31m34s155.png